<?xml version="1.0" standalone="no"?>
<!DOCTYPE svg PUBLIC "-//W3C//DTD SVG 20010904//EN"
 "http://www.w3.org/TR/2001/REC-SVG-20010904/DTD/svg10.dtd">
<svg version="1.0" xmlns="http://www.w3.org/2000/svg"
 width="1024.000000pt" height="922.000000pt" viewBox="0 0 1024.000000 922.000000"
 preserveAspectRatio="xMidYMid meet">
<metadata>
Created by potrace 1.16, written by Peter Selinger 2001-2019
</metadata>
<g transform="translate(0.000000,922.000000) scale(0.100000,-0.100000)"
fill="#000000" stroke="none">
<path d="M4985 8294 c-357 -22 -622 -70 -913 -165 -298 -97 -529 -204 -781
-362 -599 -375 -1018 -840 -1327 -1472 -150 -306 -255 -644 -303 -980 -47
-320 -49 -641 -6 -972 96 -738 454 -1456 990 -1987 724 -717 1696 -1083 2731
-1026 231 12 316 22 509 61 732 145 1345 474 1856 995 436 445 730 979 848
1539 34 163 57 315 65 435 l6 85 -20 -66 c-39 -132 -156 -408 -226 -532 -112
-197 -185 -304 -329 -482 -44 -55 -96 -127 -115 -160 -106 -189 -270 -404
-445 -584 -233 -240 -464 -411 -740 -546 -193 -95 -294 -135 -464 -184 -334
-96 -486 -116 -866 -116 -259 1 -319 4 -443 23 -249 39 -544 120 -739 203
-402 171 -718 388 -1021 704 -549 571 -860 1397 -813 2156 24 368 106 679 264
999 220 446 557 822 1032 1150 208 143 400 247 647 349 177 72 236 91 415 135
307 75 541 101 823 93 270 -9 486 -44 747 -123 118 -36 355 -140 457 -201 336
-201 748 -592 988 -938 174 -250 295 -526 350 -797 20 -100 23 -142 23 -353
-1 -222 -3 -251 -29 -384 -64 -329 -211 -727 -452 -1221 -78 -160 -217 -425
-267 -509 -26 -44 -16 -37 92 53 410 344 733 774 930 1239 129 302 193 658
171 947 -39 504 -218 995 -528 1450 -422 617 -1050 1100 -1748 1345 -280 99
-492 147 -789 179 -142 15 -470 27 -580 20z"/>
<path d="M4850 7234 c-572 -52 -1085 -282 -1511 -679 -419 -390 -709 -939
-795 -1505 -8 -52 -18 -166 -24 -253 -64 -1048 510 -2033 1445 -2483 183 -88
284 -124 486 -174 222 -55 376 -73 609 -73 385 0 728 79 1075 248 278 134 477
276 695 495 307 307 517 657 649 1086 135 439 141 1013 15 1452 -196 683 -637
1244 -1244 1581 -256 142 -567 249 -832 286 -108 15 -474 27 -568 19z m444
-199 c607 -71 1148 -366 1539 -840 333 -403 522 -881 557 -1407 28 -407 -65
-848 -260 -1238 -257 -514 -720 -935 -1248 -1136 -320 -121 -551 -160 -892
-151 -284 8 -457 40 -712 131 -163 58 -250 99 -398 186 -421 248 -776 646
-962 1078 -144 336 -208 642 -208 1001 0 351 71 675 218 999 419 921 1397
1490 2366 1377z"/>
<path d="M3738 6115 c-50 -16 -134 -75 -167 -116 -59 -75 -77 -206 -44 -310
21 -65 104 -154 176 -187 l47 -22 0 -278 -1 -277 -52 -24 c-202 -96 -253 -370
-96 -523 79 -77 118 -93 229 -93 81 0 102 4 140 24 86 45 145 110 169 184 l13
37 278 0 279 0 27 -60 c29 -66 86 -125 156 -162 36 -19 58 -23 138 -23 84 0
101 3 145 27 87 48 140 105 164 181 l13 37 278 0 279 0 30 -64 c36 -74 91
-128 167 -163 l54 -24 0 -274 0 -273 -62 -30 c-94 -44 -156 -112 -173 -189
l-7 -33 -283 0 -283 0 -18 52 c-21 65 -88 134 -167 172 -47 23 -70 28 -132 28
-65 0 -85 -4 -140 -31 -75 -37 -140 -105 -164 -171 l-17 -45 -281 -3 -281 -2
-17 49 c-23 69 -83 134 -161 172 -56 28 -76 32 -139 32 -63 0 -83 -4 -139 -32
-130 -64 -193 -172 -184 -315 9 -130 72 -221 195 -278 58 -27 72 -30 136 -26
42 3 92 13 119 26 69 30 142 103 169 168 l23 54 280 0 281 0 19 -51 c22 -63
91 -135 160 -169 72 -34 174 -39 248 -10 79 29 160 104 189 175 l23 55 280 0
281 0 19 -52 c21 -61 91 -134 163 -169 40 -19 64 -24 138 -24 81 0 95 3 143
30 83 45 146 120 167 199 45 167 -23 316 -180 393 l-55 27 0 273 0 272 53 25
c164 78 231 231 178 406 -18 59 -31 81 -70 119 -77 75 -129 96 -236 96 -75 0
-98 -4 -140 -25 -71 -34 -139 -106 -162 -169 l-18 -51 -284 2 -283 3 -20 54
c-23 62 -73 114 -150 156 -48 27 -62 30 -143 30 -73 0 -99 -4 -136 -23 -74
-36 -126 -87 -159 -158 l-31 -64 -277 0 -278 0 -28 66 c-32 72 -93 130 -173
165 l-43 18 0 275 0 275 53 24 c78 37 132 88 166 162 l31 65 274 0 275 0 27
-60 c73 -164 275 -241 430 -165 73 36 147 109 164 161 7 21 17 45 23 52 7 9
76 12 283 12 l274 0 28 -62 c34 -74 90 -129 170 -166 152 -69 343 2 419 156
24 49 28 69 28 142 0 76 -3 93 -33 153 -76 154 -270 219 -427 142 -67 -32
-147 -117 -163 -174 l-13 -41 -285 2 -286 3 -19 49 c-23 63 -88 129 -159 164
-46 23 -68 27 -135 27 -68 0 -89 -4 -137 -28 -76 -37 -143 -105 -165 -168
l-18 -49 -283 0 c-260 0 -283 1 -288 18 -29 90 -97 167 -182 204 -60 27 -162
33 -224 13z"/>
</g>
</svg>
